<?xml version="1.0" encoding="iso-8859-1"?>
<!-- Uploaded to: SVG Repo, www.svgrepo.com, Generator: SVG Repo Mixer Tools -->
<svg height="800px" width="800px" version="1.1" id="Layer_1" xmlns="http://www.w3.org/2000/svg" xmlns:xlink="http://www.w3.org/1999/xlink" 
	 viewBox="0 0 512 512" xml:space="preserve">
<g>
	<polygon style="fill:#FF931E;" points="486.591,27.399 289.977,50.031 289.977,73.9 486.591,96.531 	"/>
	<polygon style="fill:#FF931E;" points="25.408,27.399 222.023,50.031 222.023,73.9 25.408,96.531 	"/>
</g>
<g>
	<polygon style="fill:#DDE9ED;" points="301.715,110.683 210.284,110.683 193.084,407.609 318.915,407.609 	"/>
	<polygon style="fill:#DDE9ED;" points="318.915,10.199 193.084,10.199 197.578,36.452 314.421,36.452 	"/>
	<polygon style="fill:#DDE9ED;" points="210.284,110.683 301.715,110.683 306.364,83.525 205.635,83.525 	"/>
</g>
<polygon style="fill:#76CFE2;" points="197.578,36.452 205.635,83.525 306.364,83.525 314.421,36.452 "/>
<path style="fill:#4D4D4D;" d="M255.999,347.861L255.999,347.861c-11.999,0-21.726,9.727-21.726,21.726v38.021h43.453v-38.021
	C277.725,357.589,267.998,347.861,255.999,347.861z"/>
<polygon style="fill:#DDE9ED;" points="135.617,407.608 376.383,407.608 421.676,501.801 90.324,501.801 "/>
<path d="M493.378,19.786c-2.169-1.934-5.06-2.853-7.953-2.519L324.889,35.746l4.079-23.825c0.507-2.963-0.318-5.998-2.256-8.296
	S321.922,0,318.915,0H193.084c-3.006,0-5.858,1.326-7.797,3.624c-1.938,2.298-2.763,5.333-2.256,8.296l4.078,23.825L26.575,17.267
	c-2.886-0.331-5.782,0.584-7.953,2.519s-3.413,4.705-3.413,7.613v69.132c0,2.908,1.241,5.678,3.413,7.613
	c1.878,1.675,4.297,2.587,6.787,2.587c0.388,0,0.777-0.021,1.167-0.066l169.337-19.492l4.121,24.082l-16.576,286.154h-47.842
	c-3.92,0-7.493,2.247-9.192,5.78l-45.293,94.193c-1.52,3.161-1.31,6.88,0.557,9.848c1.866,2.968,5.128,4.77,8.636,4.77h331.352
	c3.506,0,6.768-1.802,8.635-4.77c1.866-2.968,2.077-6.689,0.558-9.848l-45.293-94.193c-1.699-3.533-5.272-5.78-9.193-5.78h-47.842
	l-16.576-286.154l4.121-24.082l169.338,19.492c0.39,0.045,0.779,0.066,1.167,0.066c2.49,0,4.909-0.912,6.787-2.587
	c2.171-1.935,3.413-4.705,3.413-7.613V27.399C496.791,24.491,495.55,21.721,493.378,19.786z M297.762,73.326h-83.525l-4.566-26.675
	h92.657L297.762,73.326z M217.729,93.725h76.541l-1.157,6.759h-74.228L217.729,93.725z M306.822,20.398l-1.002,5.854h-99.64
	l-1.003-5.854H306.822z M35.607,38.841l155.087,17.851l1.771,10.344L35.607,85.091V38.841z M267.527,397.409h-23.054v-27.821
	c0-6.356,5.171-11.527,11.527-11.527s11.527,5.171,11.527,11.527V397.409z M369.971,417.807l20.444,42.517h-53.151
	c-5.632,0-10.199,4.566-10.199,10.199s4.567,10.199,10.199,10.199h62.96l5.231,10.878H186.954l26.45-26.45
	c3.983-3.983,3.983-10.441,0-14.425c-3.983-3.982-10.441-3.982-14.425,0l-40.873,40.874h-51.561l35.484-73.794H369.971z
	 M287.926,397.409v-27.821c0-17.604-14.322-31.926-31.926-31.926c-17.604,0-31.926,14.322-31.926,31.926v27.821h-20.183
	l4.376-75.559h71.269c5.632,0,10.199-4.566,10.199-10.199s-4.567-10.199-10.199-10.199H209.45l1.755-30.297h66.521
	c5.632,0,10.199-4.566,10.199-10.199s-4.567-10.199-10.199-10.199h-65.34l1.702-29.391h60.016c5.632,0,10.199-4.566,10.199-10.199
	c0-5.633-4.567-10.199-10.199-10.199h-58.834l1.702-29.391h22.732c5.633,0,10.199-4.566,10.199-10.199s-4.566-10.199-10.199-10.199
	h-21.551l1.755-30.297h72.181l16.019,276.526h-20.183V397.409z M476.393,85.091l-156.86-18.056l1.771-10.344L476.392,38.84v46.251
	H476.393z"/>
<path d="M270.484,151.179h-1.81c-5.632,0-10.199,4.566-10.199,10.199s4.567,10.199,10.199,10.199h1.81
	c5.632,0,10.199-4.566,10.199-10.199S276.116,151.179,270.484,151.179z"/>
<path d="M268.978,440.243c-3.984-3.983-10.441-3.983-14.425,0c-3.983,3.983-3.983,10.441,0,14.425l8.389,8.389
	c1.992,1.992,4.602,2.987,7.212,2.987s5.22-0.995,7.212-2.987c3.983-3.983,3.983-10.441,0-14.425L268.978,440.243z"/>
</svg>